<svg width="363" height="134" viewBox="0 0 363 134" fill="none" xmlns="http://www.w3.org/2000/svg">
<path d="M0 38.1264C0 30.5552 1.53227 23.9304 4.5968 18.252C7.66133 12.4835 11.8525 8.02187 17.1704 4.8672C22.5784 1.71253 28.5723 0.135198 35.152 0.135198C41.6416 0.135198 47.2749 1.53227 52.052 4.3264C56.8291 7.12053 60.3893 10.6357 62.7328 14.872V1.352H75.1712V75.4416H62.7328V61.6512C60.2992 65.9776 56.6488 69.5829 51.7816 72.4672C47.0045 75.2613 41.4163 76.6584 35.0168 76.6584C28.4371 76.6584 22.4883 75.036 17.1704 71.7912C11.8525 68.5464 7.66133 63.9947 4.5968 58.136C1.53227 52.2773 0 45.6075 0 38.1264ZM62.7328 38.2616C62.7328 32.6733 61.6061 27.8061 59.3528 23.66C57.0995 19.5139 54.0349 16.3592 50.1592 14.196C46.3736 11.9427 42.1824 10.816 37.5856 10.816C32.9888 10.816 28.7976 11.8976 25.012 14.0608C21.2264 16.224 18.2069 19.3787 15.9536 23.5248C13.7003 27.6709 12.5736 32.5381 12.5736 38.1264C12.5736 43.8048 13.7003 48.7621 15.9536 52.9984C18.2069 57.1445 21.2264 60.3443 25.012 62.5976C28.7976 64.7608 32.9888 65.8424 37.5856 65.8424C42.1824 65.8424 46.3736 64.7608 50.1592 62.5976C54.0349 60.3443 57.0995 57.1445 59.3528 52.9984C61.6061 48.7621 62.7328 43.8499 62.7328 38.2616Z" fill="#CAD3F5"/>
<path d="M185.059 0C190.828 0 195.965 1.2168 200.472 3.6504C204.979 5.99387 208.539 9.55414 211.153 14.3312C213.767 19.1083 215.074 24.9219 215.074 31.772V75.4416H202.906V33.5296C202.906 26.1387 201.058 20.5053 197.362 16.6296C193.757 12.6637 188.845 10.6808 182.626 10.6808C176.226 10.6808 171.134 12.7539 167.348 16.9C163.562 20.956 161.67 26.8597 161.67 34.6112V75.4416H149.502V33.5296C149.502 26.1387 147.654 20.5053 143.958 16.6296C140.353 12.6637 135.441 10.6808 129.222 10.6808C122.822 10.6808 117.73 12.7539 113.944 16.9C110.158 20.956 108.266 26.8597 108.266 34.6112V75.4416H95.9624V1.352H108.266V12.0328C110.699 8.15707 113.944 5.18267 118 3.1096C122.146 1.03653 126.698 0 131.655 0C137.874 0 143.373 1.39707 148.15 4.1912C152.927 6.98533 156.487 11.0864 158.83 16.4944C160.903 11.2667 164.329 7.21067 169.106 4.3264C173.883 1.44213 179.201 0 185.059 0Z" fill="#CAD3F5"/>
<path d="M230.659 38.1264C230.659 30.5552 232.191 23.9304 235.255 18.252C238.32 12.4835 242.511 8.02187 247.829 4.8672C253.237 1.71253 259.231 0.135198 265.811 0.135198C272.3 0.135198 277.934 1.53227 282.711 4.3264C287.488 7.12053 291.048 10.6357 293.391 14.872V1.352H305.83V75.4416H293.391V61.6512C290.958 65.9776 287.307 69.5829 282.44 72.4672C277.663 75.2613 272.075 76.6584 265.675 76.6584C259.096 76.6584 253.147 75.036 247.829 71.7912C242.511 68.5464 238.32 63.9947 235.255 58.136C232.191 52.2773 230.659 45.6075 230.659 38.1264ZM293.391 38.2616C293.391 32.6733 292.265 27.8061 290.011 23.66C287.758 19.5139 284.694 16.3592 280.818 14.196C277.032 11.9427 272.841 10.816 268.244 10.816C263.647 10.816 259.456 11.8976 255.671 14.0608C251.885 16.224 248.866 19.3787 246.612 23.5248C244.359 27.6709 243.232 32.5381 243.232 38.1264C243.232 43.8048 244.359 48.7621 246.612 52.9984C248.866 57.1445 251.885 60.3443 255.671 62.5976C259.456 64.7608 263.647 65.8424 268.244 65.8424C272.841 65.8424 277.032 64.7608 280.818 62.5976C284.694 60.3443 287.758 57.1445 290.011 52.9984C292.265 48.7621 293.391 43.8499 293.391 38.2616Z" fill="#ADB5D6"/>
<path d="M338.924 13.3848C341.087 9.14853 344.152 5.85867 348.118 3.5152C352.174 1.17173 357.086 0 362.855 0V12.7088H359.61C345.819 12.7088 338.924 20.1899 338.924 35.152V75.4416H326.621V1.352H338.924V13.3848Z" fill="#ADB5D6"/>
<path d="M10.2187 95.2156C12.8603 95.2156 15.1427 95.7138 17.0659 96.7102C19.0124 97.6834 20.4953 99.0853 21.5149 100.916C22.5576 102.746 23.079 104.901 23.079 107.381C23.079 109.86 22.5576 112.015 21.5149 113.846C20.4953 115.653 19.0124 117.043 17.0659 118.017C15.1427 118.967 12.8603 119.442 10.2187 119.442H2.67633V95.2156H10.2187ZM10.2187 116.835C13.3469 116.835 15.7336 116.012 17.3788 114.367C19.0239 112.699 19.8465 110.37 19.8465 107.381C19.8465 104.368 19.0124 102.017 17.344 100.325C15.6988 98.6334 13.3237 97.7877 10.2187 97.7877H5.83926V116.835H10.2187ZM28.8846 97.3011C28.2821 97.3011 27.7723 97.0925 27.3552 96.6754C26.9382 96.2583 26.7296 95.7486 26.7296 95.1461C26.7296 94.5436 26.9382 94.0339 27.3552 93.6168C27.7723 93.1997 28.2821 92.9911 28.8846 92.9911C29.4639 92.9911 29.9505 93.1997 30.3444 93.6168C30.7615 94.0339 30.97 94.5436 30.97 95.1461C30.97 95.7486 30.7615 96.2583 30.3444 96.6754C29.9505 97.0925 29.4639 97.3011 28.8846 97.3011ZM30.4139 100.394V119.442H27.251V100.394H30.4139ZM43.6598 100.082C45.305 100.082 46.7416 100.441 47.9697 101.159C49.221 101.877 50.1478 102.781 50.7503 103.87V100.394H53.948V119.859C53.948 121.597 53.5773 123.137 52.8358 124.481C52.0943 125.849 51.0284 126.914 49.6381 127.679C48.2709 128.444 46.6721 128.826 44.8415 128.826C42.339 128.826 40.2535 128.235 38.5852 127.053C36.9168 125.872 35.932 124.261 35.6308 122.222H38.759C39.1065 123.381 39.8249 124.308 40.9139 125.003C42.003 125.721 43.3122 126.08 44.8415 126.08C46.5794 126.08 47.9929 125.536 49.0819 124.447C50.1942 123.358 50.7503 121.828 50.7503 119.859V115.862C50.1247 116.974 49.1978 117.901 47.9697 118.642C46.7416 119.384 45.305 119.754 43.6598 119.754C41.9682 119.754 40.4273 119.337 39.037 118.503C37.6699 117.669 36.5924 116.499 35.8046 114.993C35.0167 113.486 34.6228 111.772 34.6228 109.849C34.6228 107.902 35.0167 106.199 35.8046 104.739C36.5924 103.256 37.6699 102.109 39.037 101.298C40.4273 100.487 41.9682 100.082 43.6598 100.082ZM50.7503 109.883C50.7503 108.447 50.4607 107.195 49.8814 106.129C49.3021 105.064 48.5142 104.253 47.5179 103.696C46.5446 103.117 45.4672 102.828 44.2854 102.828C43.1037 102.828 42.0262 103.106 41.053 103.662C40.0798 104.218 39.3035 105.029 38.7242 106.095C38.1449 107.161 37.8553 108.412 37.8553 109.849C37.8553 111.308 38.1449 112.583 38.7242 113.672C39.3035 114.738 40.0798 115.56 41.053 116.14C42.0262 116.696 43.1037 116.974 44.2854 116.974C45.4672 116.974 46.5446 116.696 47.5179 116.14C48.5142 115.56 49.3021 114.738 49.8814 113.672C50.4607 112.583 50.7503 111.32 50.7503 109.883ZM60.9267 97.3011C60.3242 97.3011 59.8144 97.0925 59.3973 96.6754C58.9802 96.2583 58.7717 95.7486 58.7717 95.1461C58.7717 94.5436 58.9802 94.0339 59.3973 93.6168C59.8144 93.1997 60.3242 92.9911 60.9267 92.9911C61.5059 92.9911 61.9926 93.1997 62.3865 93.6168C62.8036 94.0339 63.0121 94.5436 63.0121 95.1461C63.0121 95.7486 62.8036 96.2583 62.3865 96.6754C61.9926 97.0925 61.5059 97.3011 60.9267 97.3011ZM62.456 100.394V119.442H59.2931V100.394H62.456ZM71.7047 103.001V114.228C71.7047 115.155 71.9017 115.815 72.2956 116.209C72.6895 116.58 73.3731 116.765 74.3463 116.765H76.6751V119.442H73.8249C72.0639 119.442 70.7431 119.036 69.8626 118.225C68.9821 117.414 68.5418 116.082 68.5418 114.228V103.001H66.074V100.394H68.5418V95.598H71.7047V100.394H76.6751V103.001H71.7047ZM79.3256 109.849C79.3256 107.902 79.7195 106.199 80.5073 104.739C81.2952 103.256 82.3727 102.109 83.7398 101.298C85.1301 100.487 86.671 100.082 88.3625 100.082C90.0309 100.082 91.4791 100.441 92.7072 101.159C93.9353 101.877 94.8506 102.781 95.4531 103.87V100.394H98.6508V119.442H95.4531V115.896C94.8274 117.009 93.889 117.935 92.6377 118.677C91.4096 119.395 89.973 119.754 88.3278 119.754C86.6363 119.754 85.1069 119.337 83.7398 118.503C82.3727 117.669 81.2952 116.499 80.5073 114.993C79.7195 113.486 79.3256 111.772 79.3256 109.849ZM95.4531 109.883C95.4531 108.447 95.1634 107.195 94.5841 106.129C94.0048 105.064 93.217 104.253 92.2206 103.696C91.2474 103.117 90.1699 102.828 88.9882 102.828C87.8064 102.828 86.7289 103.106 85.7557 103.662C84.7825 104.218 84.0063 105.029 83.427 106.095C82.8477 107.161 82.558 108.412 82.558 109.849C82.558 111.308 82.8477 112.583 83.427 113.672C84.0063 114.738 84.7825 115.56 85.7557 116.14C86.7289 116.696 87.8064 116.974 88.9882 116.974C90.1699 116.974 91.2474 116.696 92.2206 116.14C93.217 115.56 94.0048 114.738 94.5841 113.672C95.1634 112.583 95.4531 111.32 95.4531 109.883ZM107.159 93.721V119.442H103.996V93.721H107.159ZM128.906 116.522L134.815 100.394H138.187L130.714 119.442H127.029L119.557 100.394H122.963L128.906 116.522ZM149.606 119.754C147.822 119.754 146.2 119.349 144.74 118.538C143.303 117.727 142.168 116.58 141.334 115.097C140.523 113.591 140.117 111.853 140.117 109.883C140.117 107.937 140.534 106.222 141.369 104.739C142.226 103.233 143.384 102.086 144.844 101.298C146.304 100.487 147.938 100.082 149.745 100.082C151.553 100.082 153.186 100.487 154.646 101.298C156.106 102.086 157.253 103.221 158.087 104.704C158.944 106.187 159.373 107.914 159.373 109.883C159.373 111.853 158.933 113.591 158.052 115.097C157.195 116.58 156.025 117.727 154.542 118.538C153.059 119.349 151.413 119.754 149.606 119.754ZM149.606 116.974C150.741 116.974 151.807 116.707 152.804 116.174C153.8 115.641 154.6 114.842 155.202 113.776C155.828 112.71 156.14 111.413 156.14 109.883C156.14 108.354 155.839 107.056 155.237 105.99C154.634 104.925 153.847 104.137 152.873 103.627C151.9 103.094 150.846 102.828 149.71 102.828C148.552 102.828 147.486 103.094 146.513 103.627C145.563 104.137 144.798 104.925 144.219 105.99C143.639 107.056 143.35 108.354 143.35 109.883C143.35 111.436 143.628 112.745 144.184 113.811C144.763 114.877 145.528 115.676 146.478 116.209C147.428 116.719 148.471 116.974 149.606 116.974ZM167.39 103.001V114.228C167.39 115.155 167.587 115.815 167.981 116.209C168.375 116.58 169.058 116.765 170.031 116.765H172.36V119.442H169.51C167.749 119.442 166.428 119.036 165.548 118.225C164.667 117.414 164.227 116.082 164.227 114.228V103.001H161.759V100.394H164.227V95.598H167.39V100.394H172.36V103.001H167.39ZM177.826 97.3011C177.223 97.3011 176.714 97.0925 176.297 96.6754C175.88 96.2583 175.671 95.7486 175.671 95.1461C175.671 94.5436 175.88 94.0339 176.297 93.6168C176.714 93.1997 177.223 92.9911 177.826 92.9911C178.405 92.9911 178.892 93.1997 179.286 93.6168C179.703 94.0339 179.911 94.5436 179.911 95.1461C179.911 95.7486 179.703 96.2583 179.286 96.6754C178.892 97.0925 178.405 97.3011 177.826 97.3011ZM179.355 100.394V119.442H176.192V100.394H179.355ZM194.026 100.047C196.343 100.047 198.22 100.754 199.657 102.167C201.094 103.557 201.812 105.573 201.812 108.215V119.442H198.684V108.667C198.684 106.767 198.209 105.318 197.259 104.322C196.309 103.303 195.011 102.793 193.366 102.793C191.697 102.793 190.365 103.314 189.369 104.357C188.395 105.4 187.909 106.917 187.909 108.91V119.442H184.746V100.394H187.909V103.106C188.534 102.132 189.38 101.379 190.446 100.846C191.535 100.313 192.729 100.047 194.026 100.047ZM214.834 100.082C216.479 100.082 217.916 100.441 219.144 101.159C220.395 101.877 221.322 102.781 221.924 103.87V100.394H225.122V119.859C225.122 121.597 224.751 123.137 224.01 124.481C223.268 125.849 222.202 126.914 220.812 127.679C219.445 128.444 217.846 128.826 216.015 128.826C213.513 128.826 211.427 128.235 209.759 127.053C208.091 125.872 207.106 124.261 206.805 122.222H209.933C210.28 123.381 210.999 124.308 212.088 125.003C213.177 125.721 214.486 126.08 216.015 126.08C217.753 126.08 219.167 125.536 220.256 124.447C221.368 123.358 221.924 121.828 221.924 119.859V115.862C221.299 116.974 220.372 117.901 219.144 118.642C217.916 119.384 216.479 119.754 214.834 119.754C213.142 119.754 211.601 119.337 210.211 118.503C208.844 117.669 207.766 116.499 206.979 114.993C206.191 113.486 205.797 111.772 205.797 109.849C205.797 107.902 206.191 106.199 206.979 104.739C207.766 103.256 208.844 102.109 210.211 101.298C211.601 100.487 213.142 100.082 214.834 100.082ZM221.924 109.883C221.924 108.447 221.635 107.195 221.055 106.129C220.476 105.064 219.688 104.253 218.692 103.696C217.719 103.117 216.641 102.828 215.459 102.828C214.278 102.828 213.2 103.106 212.227 103.662C211.254 104.218 210.477 105.029 209.898 106.095C209.319 107.161 209.029 108.412 209.029 109.849C209.029 111.308 209.319 112.583 209.898 113.672C210.477 114.738 211.254 115.56 212.227 116.14C213.2 116.696 214.278 116.974 215.459 116.974C216.641 116.974 217.719 116.696 218.692 116.14C219.688 115.56 220.476 114.738 221.055 113.672C221.635 112.583 221.924 111.32 221.924 109.883ZM246.476 119.754C245.017 119.754 243.707 119.511 242.549 119.025C241.39 118.515 240.475 117.82 239.803 116.939C239.131 116.035 238.76 115.004 238.691 113.846H241.958C242.051 114.796 242.491 115.572 243.279 116.174C244.09 116.777 245.144 117.078 246.442 117.078C247.647 117.078 248.597 116.812 249.292 116.279C249.987 115.746 250.334 115.074 250.334 114.263C250.334 113.429 249.964 112.815 249.222 112.421C248.481 112.003 247.334 111.598 245.781 111.204C244.368 110.833 243.209 110.463 242.305 110.092C241.425 109.698 240.66 109.13 240.011 108.389C239.386 107.624 239.073 106.628 239.073 105.4C239.073 104.426 239.363 103.534 239.942 102.723C240.521 101.912 241.344 101.275 242.41 100.812C243.476 100.325 244.692 100.082 246.059 100.082C248.168 100.082 249.871 100.615 251.169 101.681C252.466 102.746 253.161 104.206 253.254 106.06H250.091C250.022 105.064 249.616 104.264 248.875 103.662C248.156 103.059 247.183 102.758 245.955 102.758C244.82 102.758 243.916 103.001 243.244 103.488C242.572 103.975 242.236 104.612 242.236 105.4C242.236 106.025 242.433 106.547 242.827 106.964C243.244 107.358 243.754 107.682 244.356 107.937C244.982 108.169 245.839 108.435 246.928 108.736C248.295 109.107 249.408 109.478 250.265 109.849C251.122 110.196 251.852 110.729 252.455 111.447C253.08 112.166 253.405 113.104 253.428 114.263C253.428 115.305 253.138 116.244 252.559 117.078C251.98 117.912 251.157 118.573 250.091 119.059C249.048 119.523 247.843 119.754 246.476 119.754ZM274.298 100.394L262.828 128.409H259.561L263.315 119.233L255.634 100.394H259.144L265.122 115.827L271.031 100.394H274.298ZM284.221 119.754C282.761 119.754 281.452 119.511 280.293 119.025C279.135 118.515 278.219 117.82 277.547 116.939C276.875 116.035 276.505 115.004 276.435 113.846H279.702C279.795 114.796 280.235 115.572 281.023 116.174C281.834 116.777 282.888 117.078 284.186 117.078C285.391 117.078 286.341 116.812 287.036 116.279C287.731 115.746 288.079 115.074 288.079 114.263C288.079 113.429 287.708 112.815 286.967 112.421C286.225 112.003 285.078 111.598 283.526 111.204C282.112 110.833 280.954 110.463 280.05 110.092C279.169 109.698 278.405 109.13 277.756 108.389C277.13 107.624 276.817 106.628 276.817 105.4C276.817 104.426 277.107 103.534 277.686 102.723C278.266 101.912 279.088 101.275 280.154 100.812C281.22 100.325 282.437 100.082 283.804 100.082C285.912 100.082 287.615 100.615 288.913 101.681C290.211 102.746 290.906 104.206 290.999 106.06H287.836C287.766 105.064 287.361 104.264 286.619 103.662C285.901 103.059 284.928 102.758 283.699 102.758C282.564 102.758 281.66 103.001 280.988 103.488C280.316 103.975 279.98 104.612 279.98 105.4C279.98 106.025 280.177 106.547 280.571 106.964C280.988 107.358 281.498 107.682 282.101 107.937C282.726 108.169 283.584 108.435 284.673 108.736C286.04 109.107 287.152 109.478 288.009 109.849C288.867 110.196 289.597 110.729 290.199 111.447C290.825 112.166 291.149 113.104 291.172 114.263C291.172 115.305 290.883 116.244 290.303 117.078C289.724 117.912 288.902 118.573 287.836 119.059C286.793 119.523 285.588 119.754 284.221 119.754ZM299.495 103.001V114.228C299.495 115.155 299.692 115.815 300.086 116.209C300.48 116.58 301.164 116.765 302.137 116.765H304.466V119.442H301.616C299.855 119.442 298.534 119.036 297.653 118.225C296.773 117.414 296.332 116.082 296.332 114.228V103.001H293.865V100.394H296.332V95.598H299.495V100.394H304.466V103.001H299.495ZM325.677 109.188C325.677 109.791 325.642 110.428 325.572 111.1H310.349C310.465 112.977 311.102 114.448 312.26 115.514C313.442 116.557 314.867 117.078 316.536 117.078C317.903 117.078 319.038 116.765 319.942 116.14C320.869 115.491 321.517 114.633 321.888 113.568H325.294C324.785 115.398 323.765 116.893 322.236 118.051C320.706 119.187 318.806 119.754 316.536 119.754C314.728 119.754 313.106 119.349 311.669 118.538C310.256 117.727 309.144 116.58 308.333 115.097C307.522 113.591 307.116 111.853 307.116 109.883C307.116 107.914 307.51 106.187 308.298 104.704C309.086 103.221 310.186 102.086 311.6 101.298C313.037 100.487 314.682 100.082 316.536 100.082C318.343 100.082 319.942 100.476 321.332 101.263C322.722 102.051 323.788 103.14 324.53 104.531C325.294 105.898 325.677 107.45 325.677 109.188ZM322.41 108.528C322.41 107.323 322.143 106.292 321.61 105.434C321.077 104.554 320.347 103.893 319.42 103.453C318.517 102.99 317.509 102.758 316.397 102.758C314.798 102.758 313.431 103.268 312.295 104.287C311.183 105.307 310.546 106.72 310.383 108.528H322.41ZM352.757 100.047C354.24 100.047 355.561 100.36 356.719 100.985C357.878 101.588 358.793 102.503 359.465 103.731C360.137 104.959 360.473 106.454 360.473 108.215V119.442H357.345V108.667C357.345 106.767 356.87 105.318 355.92 104.322C354.993 103.303 353.73 102.793 352.131 102.793C350.486 102.793 349.177 103.326 348.204 104.392C347.23 105.434 346.744 106.952 346.744 108.945V119.442H343.616V108.667C343.616 106.767 343.141 105.318 342.191 104.322C341.264 103.303 340.001 102.793 338.402 102.793C336.757 102.793 335.448 103.326 334.474 104.392C333.501 105.434 333.015 106.952 333.015 108.945V119.442H329.852V100.394H333.015V103.14C333.64 102.144 334.474 101.379 335.517 100.846C336.583 100.313 337.753 100.047 339.028 100.047C340.627 100.047 342.04 100.406 343.268 101.124C344.496 101.843 345.412 102.897 346.014 104.287C346.547 102.943 347.427 101.901 348.656 101.159C349.884 100.418 351.251 100.047 352.757 100.047Z" fill="#CAD3F5"/>
</svg>
